<?xml version="1.0" encoding="UTF-8"?>
<!-- Generator: Adobe Illustrator 21.0.0, SVG Export Plug-In . SVG Version: 6.00 Build 0)  -->
<svg version="1.1" id="Layer_1" xmlns="http://www.w3.org/2000/svg" xmlns:xlink="http://www.w3.org/1999/xlink" x="0px" y="0px" viewBox="0 0 50 50" style="enable-background:new 0 0 50 50;" xml:space="preserve">
<style type="text/css">
	.st0{fill:#AAA;}
</style>
<g>
	<path class="st0" d="M34.2,42.7c0-1.2,0-2.2,0-3.3c0-0.2,0.5-0.5,0.7-0.5c2.4,0.2,3-0.5,3-3.2c0-1.9,0.2-3.8,0.3-5.7   c0.2-2.1,1.1-3.8,3.1-5c-2-1.3-2.9-3.2-3.2-5.4C38,18.1,38,16.6,37.9,15c0-0.8-0.1-1.6-0.2-2.4c-0.1-1.1-0.8-1.5-1.8-1.5   c-1.8-0.1-1.8-0.1-1.8-1.9c0-2,0-2,2-2c3.6,0,5.5,1.7,5.8,5.3c0.2,1.8,0.1,3.6,0.2,5.4c0.1,0.9,0.2,1.9,0.4,2.8   c0.4,1.5,1.2,2,2.7,2c0.7,0,1,0.2,1,1c0,0.9,0,1.8,0,2.6c0,0.6-0.2,0.8-0.8,0.8c-1.8,0.1-2.6,0.7-3,2.5c-0.2,1-0.3,2.1-0.3,3.2   c-0.1,1.9-0.1,3.8-0.4,5.6c-0.5,2.7-2.1,4-4.9,4.2C36,42.8,35.2,42.7,34.2,42.7z"/>
	<path class="st0" d="M15.8,7.3c0,1.2,0,2.2,0,3.2c0,0.2-0.4,0.4-0.6,0.6c0,0-0.1,0-0.2,0c-2.3-0.1-2.8,0.4-2.9,3.1   c-0.1,2-0.2,4-0.4,6c-0.2,2-1.3,3.6-3,4.8c3,1.9,3.2,5,3.4,8c0.1,1.4,0,2.9,0.2,4.3c0.1,1.2,0.6,1.5,1.8,1.6   c1.7,0.1,1.7,0.1,1.7,1.8c0,0.6,0,1.2,0,1.9c-1.9,0.1-3.6,0.2-5.3-0.7c-1.8-1-2.3-2.6-2.5-4.4c-0.2-1.9-0.1-3.9-0.2-5.9   c-0.1-0.9-0.2-1.7-0.4-2.6c-0.4-1.2-1.3-1.9-2.6-1.9c-0.9,0-1.1-0.3-1.1-1.2c0.1-0.8,0-1.7,0-2.5c0-0.3,0.3-0.7,0.6-0.7   c2.7-0.5,3.4-1.4,3.5-4.3c0.1-2,0.1-3.9,0.2-5.9c0.2-3.4,2.2-5.3,5.6-5.4C14.3,7.3,15,7.3,15.8,7.3z"/>
	<path class="st0" d="M16.5,22.6c1.3,0,2.4,1.1,2.4,2.4c0,1.4-1.1,2.4-2.5,2.4c-1.4,0-2.4-1.1-2.5-2.4C14,23.7,15.1,22.6,16.5,22.6z   "/>
	<path class="st0" d="M27.4,25.1c0,1.4-1,2.4-2.4,2.4c-1.5,0-2.4-1-2.4-2.5c0-1.4,1-2.4,2.4-2.4C26.5,22.6,27.4,23.6,27.4,25.1z"/>
	<path class="st0" d="M33.5,22.6c1.3,0,2.5,1.2,2.5,2.5c0,1.3-1.2,2.4-2.6,2.4c-1.3,0-2.4-1.1-2.4-2.4C31,23.7,32.2,22.6,33.5,22.6z   "/>
</g>
</svg>